# Blender 4.0.2
# www.blender.org
o tile.005
v 0.201382 0.000000 -0.213948
v 0.000565 0.000000 -0.011247
v -0.433013 0.200000 -0.250000
v -0.000000 0.200000 -1.000000
v -0.866025 0.200000 0.500000
v 0.866025 0.200000 0.500000
v -0.221603 0.100000 0.500000
v 0.221603 0.100000 0.500000
v -0.100000 0.000000 0.500000
v 0.100000 0.000000 0.500000
v 0.543814 0.100000 -0.058087
v 0.322211 0.100000 -0.441913
v 0.483013 0.000000 -0.163397
v 0.383013 0.000000 -0.336603
v -0.083178 0.100000 -0.055440
v 0.269133 0.100000 0.160354
v -0.210938 0.100000 0.289899
v 0.207603 0.100000 0.321462
v -0.089437 0.001206 0.301069
v 0.129367 0.100000 -0.293706
v 0.368709 0.100000 0.011433
v 0.107174 0.001206 0.322151
v 0.169320 0.000000 0.097655
v 0.306923 0.000000 -0.085205
v 0.129367 0.100000 -0.293706
v 0.322211 0.100000 -0.441913
v -0.210938 0.100000 0.289899
v -0.083178 0.100000 -0.055440
v 0.368709 0.100000 0.011433
v 0.269133 0.100000 0.160354
v 0.207603 0.100000 0.321462
v 0.221603 0.100000 0.500000
v -0.221603 0.100000 0.500000
v 0.000565 0.000000 -0.011247
v 0.201382 0.000000 -0.213948
v 0.543814 0.100000 -0.058087
v -0.100000 0.000000 0.500000
v -0.089437 0.001206 0.301069
v 0.383013 0.000000 -0.336603
v 0.100000 0.000000 0.500000
v 0.107174 0.001206 0.322151
v 0.169320 0.000000 0.097655
v 0.483013 0.000000 -0.163397
v 0.306923 0.000000 -0.085205
vn 0.2099 0.9702 0.1212
vn 0.1822 0.9807 0.0714
vn 0.1884 0.9759 0.1102
vn 0.1525 0.9809 0.1204
vn 0.1180 0.9860 0.1180
vn 0.1533 0.9881 0.0078
vn 0.1644 0.9854 0.0435
vn -0.0572 0.9879 -0.1440
vn -0.0915 0.9898 -0.1094
vn -0.1164 0.9910 -0.0668
vn -0.1279 0.9895 -0.0665
vn -0.1441 0.9893 -0.0228
vn -0.2521 0.7597 -0.5994
vn -0.3953 0.7657 -0.5074
vn -0.4101 0.7650 -0.4965
vn -0.5982 0.7405 -0.3063
vn -0.6036 0.7395 -0.2980
vn -0.6656 0.7408 -0.0903
vn -0.6647 0.7395 -0.1061
vn -0.6669 0.7450 0.0153
vn 0.6317 0.7744 0.0351
vn 0.6436 0.7546 0.1280
vn 0.6427 0.7567 0.1196
vn 0.5922 0.7258 0.3500
vn 0.5892 0.7252 0.3562
vn 0.4523 0.7303 0.5119
vn 0.4531 0.7300 0.5116
vn 0.3867 0.7515 0.5346
vn -0.0000 1.0000 -0.0000
vn 0.0015 1.0000 -0.0041
vn -0.1533 0.9881 0.0120
vn 0.0942 0.9880 0.1226
vn -0.0003 1.0000 0.0064
vt 0.690655 0.960508
vt 0.563377 0.961933
vt 0.691481 0.830483
vt 0.819929 0.964481
vt 0.746001 0.827707
vt 0.596292 0.825719
vt 0.635925 0.829328
vt 0.737279 0.829495
vt 0.718048 0.831270
vt 0.691545 0.951389
vt 0.690408 0.830828
vt 0.668581 0.831287
vt 0.751101 0.759119
vt 0.729801 0.758916
vt 0.693950 0.756038
vt 0.662869 0.758713
vt 0.634753 0.757181
vt 0.643120 0.832028
vt 0.613140 0.754101
vt 0.651602 0.757796
vt 0.696404 0.757423
vt 0.728878 0.756548
vt 0.786066 0.825459
vt 0.773413 0.756615
vt 0.772819 0.696121
vt 0.699780 0.702198
vt 0.738290 0.701518
vt 0.660550 0.702815
s 1
f 3/1/1 5/2/2 28/3/3
f 4/4/4 3/1/1 28/3/3
f 28/3/3 20/5/5 4/4/4
f 33/6/6 17/7/7 5/2/2
f 36/8/8 21/9/9 6/10/10
f 30/11/11 18/12/12 6/10/10
f 43/13/13 44/14/14 29/9/15 11/8/13
f 29/9/15 44/14/14 42/15/16 16/11/17
f 16/11/17 42/15/16 41/16/18 31/12/19
f 40/17/20 8/18/20 31/12/19 41/16/18
f 37/19/21 38/20/22 27/7/23 7/6/21
f 15/3/24 27/7/23 38/20/22 34/21/25
f 35/22/26 25/5/27 15/3/24 34/21/25
f 12/23/28 25/5/27 35/22/26 39/24/28
s 0
f 13/25/29 14/24/29 1/22/29 24/14/29
f 22/16/30 23/26/30 2/21/30 19/20/30
f 23/15/29 24/27/29 1/22/29 2/21/29
s 1
f 6/10/10 21/9/9 30/11/11
f 6/10/10 18/12/12 32/18/31
f 5/2/2 17/7/7 28/3/3
f 4/4/4 20/5/5 26/23/32
s 0
f 22/28/33 19/20/33 9/19/33 10/17/33
